<svg width="311" height="49" viewBox="0 0 311 49" fill="none" xmlns="http://www.w3.org/2000/svg">
<path d="M24.5526 49C38.1127 49 49.1053 38.031 49.1053 24.5C49.1053 10.969 38.1127 0 24.5526 0C10.9926 0 0 10.969 0 24.5C0 38.031 10.9926 49 24.5526 49Z" fill="#0029FF"/>
<path d="M13.9131 26.1333C15.2692 26.1333 16.3684 25.0364 16.3684 23.6833C16.3684 22.3302 15.2692 21.2333 13.9131 21.2333C12.5571 21.2333 11.4579 22.3302 11.4579 23.6833C11.4579 25.0364 12.5571 26.1333 13.9131 26.1333Z" fill="white"/>
<path opacity="0.1" d="M15.55 19.6C16.906 19.6 18.0053 18.5031 18.0053 17.15C18.0053 15.7969 16.906 14.7 15.55 14.7C14.194 14.7 13.0947 15.7969 13.0947 17.15C13.0947 18.5031 14.194 19.6 15.55 19.6Z" fill="white"/>
<path opacity="0.1" d="M15.55 32.6667C16.906 32.6667 18.0053 31.5698 18.0053 30.2167C18.0053 28.8636 16.906 27.7667 15.55 27.7667C14.194 27.7667 13.0947 28.8636 13.0947 30.2167C13.0947 31.5698 14.194 32.6667 15.55 32.6667Z" fill="white"/>
<path opacity="0.1" d="M35.1921 32.6667C36.5481 32.6667 37.6473 31.5698 37.6473 30.2167C37.6473 28.8636 36.5481 27.7667 35.1921 27.7667C33.8361 27.7667 32.7368 28.8636 32.7368 30.2167C32.7368 31.5698 33.8361 32.6667 35.1921 32.6667Z" fill="white"/>
<path opacity="0.1" d="M35.1921 19.6C36.5481 19.6 37.6473 18.5031 37.6473 17.15C37.6473 15.7969 36.5481 14.7 35.1921 14.7C33.8361 14.7 32.7368 15.7969 32.7368 17.15C32.7368 18.5031 33.8361 19.6 35.1921 19.6Z" fill="white"/>
<path d="M20.4605 37.5667C21.8165 37.5667 22.9158 36.4698 22.9158 35.1167C22.9158 33.7636 21.8165 32.6667 20.4605 32.6667C19.1045 32.6667 18.0052 33.7636 18.0052 35.1167C18.0052 36.4698 19.1045 37.5667 20.4605 37.5667Z" fill="white"/>
<path d="M30.2816 37.5667C31.6376 37.5667 32.7368 36.4698 32.7368 35.1167C32.7368 33.7636 31.6376 32.6667 30.2816 32.6667C28.9256 32.6667 27.8263 33.7636 27.8263 35.1167C27.8263 36.4698 28.9256 37.5667 30.2816 37.5667Z" fill="white"/>
<path d="M36.829 26.1333C38.185 26.1333 39.2842 25.0364 39.2842 23.6833C39.2842 22.3302 38.185 21.2333 36.829 21.2333C35.473 21.2333 34.3737 22.3302 34.3737 23.6833C34.3737 25.0364 35.473 26.1333 36.829 26.1333Z" fill="white"/>
<path d="M25.371 26.1333C26.727 26.1333 27.8263 25.0364 27.8263 23.6833C27.8263 22.3302 26.727 21.2333 25.371 21.2333C24.015 21.2333 22.9158 22.3302 22.9158 23.6833C22.9158 25.0364 24.015 26.1333 25.371 26.1333Z" fill="white"/>
<path d="M30.2816 14.7C31.6376 14.7 32.7368 13.6031 32.7368 12.25C32.7368 10.8969 31.6376 9.79999 30.2816 9.79999C28.9256 9.79999 27.8263 10.8969 27.8263 12.25C27.8263 13.6031 28.9256 14.7 30.2816 14.7Z" fill="white"/>
<path d="M20.4605 14.7C21.8165 14.7 22.9158 13.6031 22.9158 12.25C22.9158 10.8969 21.8165 9.79999 20.4605 9.79999C19.1045 9.79999 18.0052 10.8969 18.0052 12.25C18.0052 13.6031 19.1045 14.7 20.4605 14.7Z" fill="white"/>
<path d="M13.9131 23.6833H25.371L30.2816 35.1167H20.4605" stroke="white"/>
<path d="M20.4605 12.25H30.2816" stroke="white"/>
<path d="M75.0983 13.1647H67.9944V35.9334H75.0983C82.5951 35.9334 87.211 31.654 87.211 24.598C87.211 17.542 82.5951 13.1647 75.0983 13.1647ZM70.9735 33.4834V15.582H75.0983C81.0564 15.582 84.1664 19.0447 84.1664 24.598C84.1664 30.1514 81.0564 33.4834 75.0983 33.4834H70.9735ZM103.417 13.132H91.1404V35.9334H103.417V33.4834H94.1194V25.6434H102.435V23.1934H94.1194V15.582H103.417V13.132ZM120.201 13.132H107.924V35.9334H120.201V33.4834H110.903V25.6434H119.219V23.1934H110.903V15.582H120.201V13.132ZM127.687 23.9774V15.6147H132.074C135.479 15.6147 136.919 17.1827 136.919 19.8287C136.919 22.3767 135.479 23.9774 132.074 23.9774H127.687ZM139.964 19.8287C139.964 16.1047 137.443 13.1647 132.074 13.1647H124.708V35.9334H127.687V26.4274H132.074C137.738 26.4274 139.964 23.2914 139.964 19.8287Z" fill="black"/>
<path d="M150.659 17.4767H156.748V35.9333H162.346V17.4767H168.436V13.0013H150.659V17.4767ZM185.551 35.9333H191.149V13.0013H185.551V21.9847H176.843V13.0013H171.245V35.9333H176.843V26.4927H185.551V35.9333ZM217.811 24.402C217.811 17.5093 212.606 12.6747 206.059 12.6747C199.544 12.6747 194.241 17.5093 194.241 24.402C194.241 31.2947 199.544 36.162 206.059 36.162C212.573 36.162 217.811 31.2947 217.811 24.402ZM199.97 24.402C199.97 20.3187 202.327 17.738 206.059 17.738C209.725 17.738 212.115 20.3187 212.115 24.402C212.115 28.42 209.725 31.066 206.059 31.066C202.327 31.066 199.97 28.42 199.97 24.402ZM220.826 26.6887C220.826 33.026 224.984 36.162 230.32 36.162C235.623 36.162 240.076 33.026 240.076 26.6887V13.0013H234.478V26.7213C234.478 29.4327 233.07 31.0007 230.418 31.0007C227.767 31.0007 226.424 29.4327 226.424 26.7213V13.0013H220.826V26.6887ZM254.745 12.74C247.87 12.74 243.058 17.5747 243.058 24.4347C243.058 31.2947 247.903 36.0967 254.778 36.0967C260.834 36.0967 264.664 32.144 265.843 28.1913V22.9973H253.665V27.1133H260.769C259.917 29.694 257.986 31.164 255.203 31.164C251.177 31.164 248.754 28.6813 248.754 24.4347C248.754 20.4493 251.144 17.9013 254.745 17.9013C256.84 17.9013 258.411 18.718 259.263 20.2533H265.45C264.239 15.5493 260.245 12.74 254.745 12.74ZM283.249 35.9333H288.847V13.0013H283.249V21.9847H274.541V13.0013H268.943V35.9333H274.541V26.4927H283.249V35.9333ZM291.644 17.4767H297.733V35.9333H303.331V17.4767H309.42V13.0013H291.644V17.4767Z" fill="#0029FF"/>
</svg>
